# xmcd
# Copyright (C) 1995-1998 Ti Kan
#
# Track frame offsets:
#       150
#       10944
#       40212
#       67853
#       104239
#       137880
#       179575
#
# Disc length: 2879 seconds
#
# Revision: 0
# Processed by: cddbd v1.5.2PL0 Copyright (c) Steve Scherf et al.
# Submitted via: CD-Import v1.0
#
DISCID=620b3d07
DTITLE=Lucca - Reformation 1/2
DYEAR=08
DGENRE=
TTITLE0=Intro
TTITLE1=Black Tech
TTITLE2=Bodydance
TTITLE3=Crank
TTITLE4=Woodblocker
TTITLE5=Hundertwasser
TTITLE6=Jupiter
EXTD=
EXTT0=
EXTT1=
EXTT2=
EXTT3=
EXTT4=
EXTT5=
EXTT6=
PLAYORDER=
